<svg id="secondary-logo-icon_svg__Camada_2" xmlns="http://www.w3.org/2000/svg" x="0" y="0" viewBox="0 0 53.38 58.62" xml:space="preserve" width="80" height="100%"><style>.secondary-logo-icon_svg__st0{fill:#994e9e}</style><path class="secondary-logo-icon_svg__st0" d="M12.73 24.9c-.52 0-.94.42-.94.94v20.92a.939.939 0 101.88 0V25.84c0-.52-.42-.94-.94-.94zM28.71 25.35a.936.936 0 00-1.28-.35c-.22.12-.37.33-.44.57l-4.67 17.1c-.02.09-.1.1-.14.1-.04 0-.11-.01-.14-.1l-4.67-17.1a.964.964 0 00-.44-.57.93.93 0 00-.71-.09c-.24.07-.44.22-.57.44a.93.93 0 00-.09.71l5.68 20.8c.02.16.09.31.2.45l.01.02c.06.07.13.13.2.18v.01l.13.06c.03.02.07.04.13.06.03.01.07.02.1.01.05.01.1.01.14.01h.02c.04 0 .09 0 .14-.01.02 0 .06 0 .1-.01.06-.02.11-.04.14-.06l.02-.01c.03-.01.05-.02.07-.04.09-.05.16-.12.23-.2l.02-.02a.91.91 0 00.2-.45l5.68-20.8c.09-.24.06-.5-.06-.71zM33.88 25.69a.991.991 0 00-.19-.45l-.02-.02a.873.873 0 00-.23-.2c-.02-.01-.05-.03-.1-.05a.535.535 0 00-.13-.06c-.03-.01-.07-.01-.1-.01-.06-.01-.11-.01-.14-.01h-.02c-.04 0-.09 0-.14.01-.02 0-.06 0-.1.01-.06.02-.11.04-.14.06 0 0-.01 0-.02.01-.03.01-.05.03-.07.04a.74.74 0 00-.23.2l-.02.02a.91.91 0 00-.2.45l-5.68 20.8a.936.936 0 001.37 1.06.91.91 0 00.44-.57l4.67-17.1c.02-.09.1-.1.14-.1.04 0 .11.01.14.1l3.22 11.79c.07.24.22.44.44.57.22.12.47.16.71.09.5-.14.79-.65.66-1.15l-4.26-15.49zM37.67 0H16.14c-2.41 0-4.38 1.96-4.38 4.38V21.1a.97.97 0 001.94 0V4.38c0-1.35 1.1-2.44 2.44-2.44h21.53c1.35 0 2.44 1.1 2.44 2.44v16.73a.97.97 0 001.94 0V4.38c0-2.42-1.97-4.38-4.38-4.38z"></path><circle class="secondary-logo-icon_svg__st0" cx="26.93" cy="9.24" r="2.1"></circle><path d="M53.37 25.73a.936.936 0 00-1.4-.74c-.22.12-.37.33-.44.57l-4.67 17.1c-.02.09-.1.1-.14.1-.04 0-.11-.01-.14-.1l-4.67-17.1a.964.964 0 00-.44-.57c-.12-.07-.24-.1-.37-.12a.642.642 0 00-.33.02c-.43.12-.72.53-.72.98v28.36c0 1.35-1.09 2.44-2.44 2.44H16.09c-1.35 0-2.44-1.09-2.44-2.44V51.5c0-.49-.35-.93-.84-.99a.96.96 0 00-1.09.96v2.78c0 2.42 1.96 4.38 4.38 4.38h21.5c2.42 0 4.38-1.96 4.38-4.38V33.78c0-.15.21-.18.25-.03l3.58 13.12c.02.16.09.31.2.45l.01.02c.06.07.13.13.2.18v.01l.13.06c.03.02.07.04.13.06.03.01.07.02.1.01.05.01.1.01.14.01h.02c.04 0 .09 0 .14-.01.02 0 .06 0 .1-.01.06-.02.11-.04.14-.06l.02-.01c.03-.01.05-.02.07-.04.09-.05.16-.12.23-.2l.02-.02a.91.91 0 00.2-.45l3.59-13.15c.04-.14.25-.12.25.03v12.98c0 .49.36.93.84.97a.936.936 0 001.03-.93V25.84c.01-.04 0-.07 0-.11z" fill="#f6a934"></path><path class="secondary-logo-icon_svg__st0" d="M.95 24.9H.93.92c-.51.01-.92.43-.92.94v20.92c0 .51.41.93.93.94 4.98 0 9.01-5.1 9.01-11.4-.01-6.28-4.02-11.38-8.99-11.4zm.92 20.15V27.56c0-.17.16-.29.32-.25 3.33.77 5.86 4.5 5.86 9s-2.53 8.23-5.86 9a.27.27 0 01-.32-.26z"></path></svg>